<svg width="80" height="91" viewBox="0 0 80 91" fill="none" xmlns="http://www.w3.org/2000/svg">
<rect y="11" width="80" height="80" rx="20" fill="#D9D9D9"/>
<rect x="10" y="27" width="60" height="54" rx="12" fill="#51B974"/>
<path d="M37 69C37 68.4477 37.4477 68 38 68H41C41.5523 68 42 68.4477 42 69V72C42 72.5523 41.5523 73 41 73H38C37.4477 73 37 72.5523 37 72V69Z" fill="#D9D9D9"/>
<rect x="21" y="36" width="5" height="5" rx="1" fill="#D9D9D9"/>
<rect x="29" y="36" width="5" height="5" rx="1" fill="#D9D9D9"/>
<rect x="37" y="36" width="5" height="5" rx="1" fill="#E0F11D"/>
<rect x="45" y="36" width="5" height="5" rx="1" fill="#D9D9D9"/>
<rect x="53" y="36" width="5" height="5" rx="1" fill="#D9D9D9"/>
<rect x="61" y="36" width="5" height="5" rx="1" fill="#FF4D4D"/>
<rect x="13" y="44" width="5" height="5" rx="1" fill="#D9D9D9"/>
<rect x="21" y="44" width="5" height="5" rx="1" fill="#FF4D4D"/>
<rect x="29" y="44" width="5" height="5" rx="1" fill="#D9D9D9"/>
<rect x="37" y="44" width="5" height="5" rx="1" fill="#D9D9D9"/>
<rect x="45" y="44" width="5" height="5" rx="1" fill="#D9D9D9"/>
<rect x="53" y="44" width="5" height="5" rx="1" fill="#D9D9D9"/>
<rect x="61" y="44" width="5" height="5" rx="1" fill="#D9D9D9"/>
<rect x="13" y="52" width="5" height="5" rx="1" fill="#D9D9D9"/>
<rect x="21" y="52" width="5" height="5" rx="1" fill="#D9D9D9"/>
<rect x="29" y="52" width="5" height="5" rx="1" fill="#D9D9D9"/>
<rect x="37" y="52" width="5" height="5" rx="1" fill="#D9D9D9"/>
<rect x="45" y="52" width="5" height="5" rx="1" fill="#FF4D4D"/>
<rect x="53" y="52" width="5" height="5" rx="1" fill="#D9D9D9"/>
<rect x="61" y="52" width="5" height="5" rx="1" fill="#D9D9D9"/>
<rect x="13" y="60" width="5" height="5" rx="1" fill="#E0F11D"/>
<rect x="21" y="60" width="5" height="5" rx="1" fill="#D9D9D9"/>
<rect x="29" y="60" width="5" height="5" rx="1" fill="#E0F11D"/>
<rect x="37" y="60" width="5" height="5" rx="1" fill="#D9D9D9"/>
<rect x="45" y="60" width="5" height="5" rx="1" fill="#D9D9D9"/>
<rect x="53" y="60" width="5" height="5" rx="1" fill="#D9D9D9"/>
<rect x="61" y="60" width="5" height="5" rx="1" fill="#D9D9D9"/>
<rect x="13" y="68" width="5" height="5" rx="1" fill="#D9D9D9"/>
<rect x="21" y="68" width="5" height="5" rx="1" fill="#D9D9D9"/>
<rect x="29" y="68" width="5" height="5" rx="1" fill="#D9D9D9"/>
<rect x="36" width="7" height="20" rx="3.5" fill="#D9D9D9"/>
<rect x="54" width="7" height="20" rx="3.5" fill="#D9D9D9"/>
<rect x="18" width="7" height="20" rx="3.5" fill="#D9D9D9"/>
</svg>
